<svg 
    xmlns="http://www.w3.org/2000/svg" 
    viewBox="0 0 100 125" 
    x="0px" 
    y="0px"
>
    <polygon points="54.36 83.38 51.44 83.38 51.44 86.28 48.55 86.28 48.55 83.38 45.64 83.38 45.64 80.48 42.75 80.48 42.75 86.28 45.64 86.28 45.64 89.18 54.36 89.18 54.36 86.28 57.25 86.28 57.25 80.48 54.36 80.48 54.36 83.38"/>
    <polygon points="39.85 77.58 39.85 74.67 36.94 74.67 36.94 80.48 42.75 80.48 42.75 77.58 39.85 77.58"/>
    <polygon points="60.15 77.58 57.25 77.58 57.25 80.48 63.06 80.48 63.06 74.67 60.15 74.67 60.15 77.58"/>
    <polygon points="34.04 71.77 34.04 68.87 31.13 68.87 31.13 74.67 36.94 74.67 36.94 71.77 34.04 71.77"/>
    <polygon points="65.96 71.77 63.06 71.77 63.06 74.67 68.87 74.67 68.87 68.87 65.96 68.87 65.96 71.77"/>
    <polygon points="28.24 65.97 28.24 63.06 25.32 63.06 25.32 68.87 31.13 68.87 31.13 65.97 28.24 65.97"/>
    <polygon points="71.76 65.97 68.87 65.97 68.87 68.87 74.67 68.87 74.67 63.06 71.76 63.06 71.76 65.97"/>
    <polygon points="22.43 60.16 22.43 57.26 19.52 57.26 19.52 63.06 25.32 63.06 25.32 60.16 22.43 60.16"/>
    <polygon points="77.57 60.16 74.67 60.16 74.67 63.06 80.48 63.06 80.48 57.26 77.57 57.26 77.57 60.16"/>
    <polygon points="16.63 54.36 16.63 51.45 13.73 51.45 13.73 57.26 19.52 57.26 19.52 54.36 16.63 54.36"/>
    <polygon points="83.38 51.45 83.38 54.36 80.48 54.36 80.48 57.26 86.27 57.26 86.27 51.45 83.38 51.45"/>
    <rect x="16.63" y="48.55" width="11.61" height="2.9"/>
    <rect x="71.76" y="48.55" width="11.61" height="2.9"/>
    <rect x="28.24" y="13.73" width="2.9" height="34.82"/>
    <rect x="68.87" y="13.73" width="2.9" height="34.82"/>
    <rect x="31.13" y="10.82" width="37.73" height="2.91"/>
    <text x="0" y="115" fill="#000000" font-size="5px" font-weight="bold" font-family="'Helvetica Neue', Helvetica, Arial-Unicode, Arial, Sans-serif">Created by annisa luthfiasari</text><text x="0" y="120" fill="#000000" font-size="5px" font-weight="bold" font-family="'Helvetica Neue', Helvetica, Arial-Unicode, Arial, Sans-serif">from the Noun Project
    </text>
</svg>