<?xml version="1.0" standalone="no"?>
<!DOCTYPE svg PUBLIC "-//W3C//DTD SVG 20010904//EN"
 "http://www.w3.org/TR/2001/REC-SVG-20010904/DTD/svg10.dtd">
<svg version="1.0" xmlns="http://www.w3.org/2000/svg"
 width="400.000000pt" height="400.000000pt" viewBox="0 0 400.000000 400.000000"
 preserveAspectRatio="xMidYMid meet">

<g transform="translate(0.000000,400.000000) scale(0.100000,-0.100000)"
fill="#000000" stroke="none">
<path d="M1580 3595 l0 -105 430 0 430 0 0 105 0 105 -430 0 -430 0 0 -105z"/>
<path d="M1370 3270 l0 -210 -430 0 -430 0 0 -110 0 -110 -105 0 -105 0 0
-1175 0 -1175 105 0 105 0 0 -110 0 -110 1500 0 1500 0 0 110 0 110 105 0 105
0 0 1175 0 1175 -105 0 -105 0 0 110 0 110 -430 0 -430 0 0 210 0 210 -105 0
-105 0 0 -210 0 -210 -430 0 -430 0 0 210 0 210 -105 0 -105 0 0 -210z m2140
-750 l0 -320 -110 0 -110 0 0 -105 0 -105 -105 0 -104 0 -3 -107 -3 -108 -107
-3 -108 -3 0 -104 0 -105 -210 0 -210 0 0 105 0 105 -430 0 -430 0 0 -105 0
-105 -210 0 -210 0 0 105 0 105 -110 0 -110 0 0 -105 0 -105 105 0 104 0 3
-107 3 -108 213 -3 212 -2 0 -210 0 -210 430 0 430 0 0 210 0 210 213 2 212 3
3 108 3 107 104 0 105 0 0 105 0 104 108 3 107 3 3 108 3 108 102 -3 102 -3 0
-745 0 -745 -1495 0 -1495 0 0 745 0 745 102 3 102 3 3 -108 3 -108 108 -3
107 -3 0 111 0 110 -105 0 -105 0 0 105 0 105 -110 0 -110 0 0 320 0 320 1500
0 1500 0 0 -320z m-1290 -1175 l0 -215 -210 0 -210 0 0 215 0 215 210 0 210 0
0 -215z"/>
</g>
</svg>
